# xmcd
#
# Track frame offsets: 
#        150
#        16070
#        31029
#        46557
#        63678
#        79517
#        97556
#        113430
#        131248
#        147558
#        164434
#
# Disc length: 2401 seconds
#
# Revision: 2
# Processed by: cddbd v1.5.2PL0 Copyright (c) Steve Scherf et al.
# Submitted via: ExactAudioCopy v0.99pb3
#
DISCID=7c095f0b
DTITLE=Ray Horton - First Time
DYEAR=1999
DGENRE=Soul
TTITLE0=Because I Love You
TTITLE1=I'm In Love
TTITLE2=I Cry
TTITLE3=It Doesn't Matter
TTITLE4=Tell My Heart
TTITLE5=Back Of The Club
TTITLE6=I'm Gonna Give It To You
TTITLE7=Don't Want Nobody
TTITLE8=Thank The Angel
TTITLE9=Because I Love You (T.E.T Remix)
TTITLE10=Tell My Heart (Acoustic Version)
EXTD=
EXTT0=
EXTT1=
EXTT2=
EXTT3=
EXTT4=
EXTT5=
EXTT6=
EXTT7=
EXTT8=
EXTT9=
EXTT10=
PLAYORDER=
